<?xml version="1.0" standalone="no"?>
<!DOCTYPE svg PUBLIC "-//W3C//DTD SVG 20010904//EN"
 "http://www.w3.org/TR/2001/REC-SVG-20010904/DTD/svg10.dtd">
<svg version="1.0" xmlns="http://www.w3.org/2000/svg"
 width="353.000000pt" height="353.000000pt" viewBox="0 0 353.000000 353.000000"
 preserveAspectRatio="xMidYMid meet">
<metadata>
Created by potrace 1.11, written by Peter Selinger 2001-2013
</metadata>
<g transform="translate(0.000000,353.000000) scale(0.100000,-0.100000)"
fill="#000000" stroke="none">
<path d="M2080 2783 c-176 -17 -337 -80 -444 -174 -182 -161 -245 -377 -171
-592 84 -245 298 -363 485 -267 41 21 80 85 80 134 0 34 -25 82 -49 96 -11 5
-39 7 -64 4 -52 -7 -90 9 -134 60 -108 122 -36 320 150 409 74 36 122 47 202
47 93 -1 144 -13 243 -61 437 -211 459 -880 39 -1214 -86 -69 -198 -126 -314
-161 -79 -24 -105 -27 -253 -28 -187 -1 -253 11 -405 71 -131 53 -263 135
-363 229 -142 133 -235 287 -290 480 l-26 94 -138 0 -138 0 6 -27 c40 -176 74
-275 144 -422 69 -142 127 -230 214 -319 247 -257 552 -382 971 -399 130 -5
176 -3 245 11 437 89 796 418 907 831 24 91 27 116 27 285 0 173 -2 191 -27
274 -73 238 -205 405 -419 533 -36 22 -102 52 -146 66 -72 24 -226 49 -277 45
-11 -1 -36 -3 -55 -5z"/>
<path d="M455 2700 c-4 -6 43 -10 134 -10 87 0 141 4 141 10 0 6 -51 10 -134
10 -79 0 -137 -4 -141 -10z"/>
<path d="M780 2698 c0 -5 64 -7 143 -6 145 2 128 6 -46 10 -53 2 -97 0 -97 -4z"/>
<path d="M450 2605 c0 -13 22 -15 140 -15 118 0 140 2 140 15 0 13 -22 15
-140 15 -118 0 -140 -2 -140 -15z"/>
<path d="M780 2605 c0 -13 22 -15 135 -15 113 0 135 2 135 15 0 13 -22 15
-135 15 -113 0 -135 -2 -135 -15z"/>
<path d="M1158 2612 c-27 -2 -48 -7 -48 -13 0 -5 57 -9 136 -9 97 0 135 3 132
11 -4 12 -121 18 -220 11z"/>
<path d="M450 2515 c0 -13 22 -15 140 -15 118 0 140 2 140 15 0 13 -22 15
-140 15 -118 0 -140 -2 -140 -15z"/>
<path d="M780 2515 c0 -13 22 -15 140 -15 120 0 139 2 134 15 -9 22 -274 22
-274 0z"/>
<path d="M1110 2515 c0 -13 22 -15 135 -15 113 0 135 2 135 15 0 13 -22 15
-135 15 -113 0 -135 -2 -135 -15z"/>
<path d="M2035 2461 c-136 -33 -256 -153 -272 -271 -14 -102 74 -192 164 -168
25 6 37 18 51 51 11 23 32 53 46 67 25 22 36 25 104 25 66 0 84 -4 125 -28 93
-55 137 -149 137 -292 0 -183 -96 -335 -264 -419 -97 -49 -172 -66 -289 -66
-221 0 -405 81 -553 243 -49 53 -116 155 -129 196 -6 20 -13 21 -161 21 -85 0
-154 -4 -154 -8 0 -12 48 -129 77 -187 110 -220 332 -411 581 -500 124 -44
224 -58 372 -52 161 6 264 32 404 105 73 37 109 64 181 137 102 102 145 169
186 287 73 215 55 421 -53 600 -50 85 -146 175 -224 212 -100 48 -242 68 -329
47z"/>
<path d="M450 2420 c0 -19 7 -20 140 -20 133 0 140 1 140 20 0 19 -7 20 -140
20 -133 0 -140 -1 -140 -20z"/>
<path d="M780 2420 c0 -20 5 -20 137 -18 121 3 136 5 139 21 2 15 -10 17 -137
17 -133 0 -139 -1 -139 -20z"/>
<path d="M1110 2420 c0 -19 7 -20 135 -20 128 0 135 1 135 20 0 19 -7 20 -135
20 -128 0 -135 -1 -135 -20z"/>
<path d="M457 2353 c-4 -3 -7 -15 -7 -25 0 -17 11 -18 140 -18 l140 0 0 25 0
25 -133 0 c-74 0 -137 -3 -140 -7z"/>
<path d="M793 2353 c-7 -3 -13 -13 -13 -24 0 -19 7 -19 138 -17 114 3 137 6
137 18 1 8 -4 18 -10 23 -10 7 -231 8 -252 0z"/>
<path d="M1143 2352 c-25 -2 -33 -8 -33 -23 0 -18 8 -19 136 -19 124 0 135 2
132 18 -3 14 -18 18 -103 22 -55 3 -115 4 -132 2z"/>
<path d="M457 2263 c-4 -3 -7 -17 -7 -30 0 -23 0 -23 140 -23 l140 0 0 30 0
30 -133 0 c-74 0 -137 -3 -140 -7z"/>
<path d="M787 2264 c-4 -4 -7 -18 -7 -31 0 -23 0 -23 136 -23 l135 0 -3 28 -3
27 -126 3 c-69 1 -128 -1 -132 -4z"/>
<path d="M1110 2254 c0 -3 4 -14 10 -24 8 -16 24 -18 118 -19 122 -2 142 3
142 30 0 18 -9 19 -135 19 -74 0 -135 -3 -135 -6z"/>
<path d="M460 2150 l0 -30 141 0 140 0 -3 28 -3 27 -137 3 -138 3 0 -31z"/>
<path d="M780 2150 l0 -30 140 0 140 0 0 30 0 30 -140 0 -140 0 0 -30z"/>
<path d="M1127 2173 c-4 -3 -7 -17 -7 -30 0 -23 0 -23 135 -23 l135 0 0 24 c0
13 -7 27 -16 30 -21 8 -239 8 -247 -1z"/>
<path d="M2070 2113 c-54 -37 -65 -84 -30 -131 43 -58 28 -185 -28 -245 -43
-46 -87 -60 -182 -60 -66 1 -100 7 -154 27 -37 14 -82 26 -100 27 -24 0 -27 2
-12 8 17 7 16 10 -14 44 l-32 37 -159 0 -159 0 20 -40 c11 -22 28 -40 38 -41
10 0 12 -3 5 -6 -30 -12 61 -120 166 -196 125 -92 236 -127 401 -128 117 0
205 18 285 58 59 30 126 96 165 162 74 124 87 249 39 361 -47 108 -177 173
-249 123z"/>
<path d="M464 2074 c3 -9 6 -24 6 -35 0 -18 9 -19 140 -19 148 0 147 0 134 48
-6 21 -10 22 -146 22 -124 0 -139 -2 -134 -16z"/>
<path d="M788 2055 l4 -35 145 0 145 0 -6 23 c-3 12 -6 28 -6 35 0 9 -35 12
-143 12 l-143 0 4 -35z"/>
<path d="M1130 2061 c0 -17 6 -31 16 -35 24 -9 237 -7 252 3 9 5 11 17 6 34
l-6 27 -134 0 -134 0 0 -29z"/>
<path d="M478 1965 l4 -35 139 0 c130 0 139 1 139 19 0 50 -4 51 -149 51
l-137 0 4 -35z"/>
<path d="M800 1981 c0 -50 3 -51 157 -51 l145 0 -6 23 c-3 12 -6 28 -6 35 0 9
-36 12 -145 12 -136 0 -145 -1 -145 -19z"/>
<path d="M1144 1984 c3 -9 6 -24 6 -35 0 -18 9 -19 145 -19 83 0 145 4 145 9
0 5 -4 21 -10 35 l-10 26 -141 0 c-125 0 -140 -2 -135 -16z"/>
<path d="M820 1898 c0 -7 3 -23 6 -35 6 -23 9 -23 155 -23 l149 0 -6 28 c-4
15 -9 30 -11 35 -2 4 -69 7 -149 7 -109 0 -144 -3 -144 -12z"/>
<path d="M1170 1894 c0 -8 5 -24 10 -35 10 -18 23 -19 165 -19 l155 0 -22 35
-23 35 -142 0 c-123 0 -143 -2 -143 -16z"/>
</g>
</svg>
