<?xml version="1.0" standalone="no"?>
<!DOCTYPE svg PUBLIC "-//W3C//DTD SVG 20010904//EN"
 "http://www.w3.org/TR/2001/REC-SVG-20010904/DTD/svg10.dtd">
<svg version="1.0" xmlns="http://www.w3.org/2000/svg"
 width="494.000000pt" height="494.000000pt" viewBox="0 0 494.000000 494.000000"
 preserveAspectRatio="xMidYMid meet">
<metadata>
Created by potrace 1.11, written by Peter Selinger 2001-2013
</metadata>
<g transform="translate(0.000000,494.000000) scale(0.100000,-0.100000)"
fill="#000000" stroke="none">
<path d="M2955 3899 c-3 -3 -42 -9 -87 -12 -73 -5 -118 -11 -125 -17 -2 -2
-12 -3 -22 -4 -11 0 -23 -4 -27 -8 -4 -5 -19 -8 -33 -8 -15 0 -36 -6 -47 -14
-11 -8 -37 -17 -57 -21 -20 -4 -37 -12 -37 -18 0 -6 -3 -8 -6 -4 -3 3 -25 -6
-47 -19 -23 -14 -50 -27 -59 -31 -10 -3 -18 -9 -18 -14 0 -5 -7 -9 -15 -9 -8
0 -58 -44 -111 -97 -113 -113 -124 -126 -124 -141 0 -6 -12 -20 -26 -31 -15
-12 -23 -21 -18 -21 4 0 3 -5 -3 -11 -6 -6 -9 -17 -7 -24 3 -6 -2 -18 -11 -25
-8 -7 -15 -21 -15 -31 0 -11 -5 -19 -11 -19 -6 0 -9 -7 -6 -15 4 -8 2 -17 -3
-20 -6 -4 -10 -19 -10 -34 0 -15 -3 -31 -7 -35 -5 -4 -9 -22 -11 -39 -10 -115
-11 -167 -3 -167 5 0 8 -19 7 -42 -2 -24 1 -50 5 -58 10 -22 33 -104 31 -112
-1 -5 3 -8 8 -8 6 0 10 -11 10 -25 0 -14 5 -25 12 -25 6 0 8 -3 5 -7 -4 -3 4
-21 18 -39 14 -18 25 -37 25 -43 0 -6 5 -11 10 -11 6 0 10 -6 10 -13 0 -18
127 -140 168 -161 17 -9 32 -21 32 -27 0 -6 7 -9 15 -6 8 4 17 2 19 -2 6 -9
58 -23 96 -25 14 -1 37 -5 53 -10 17 -5 32 -4 40 2 7 6 22 11 32 11 39 1 85
13 85 24 0 6 2 8 6 5 7 -8 89 36 89 48 0 5 9 21 19 36 32 48 44 108 32 156 -6
24 -14 40 -19 36 -4 -4 -7 0 -7 10 0 20 -16 38 -45 51 -28 11 -65 14 -65 3 0
-12 -88 -10 -95 2 -4 6 -10 8 -15 5 -14 -9 -120 95 -140 138 -11 22 -17 43
-15 48 3 4 1 10 -5 14 -13 8 -13 105 -1 105 6 0 8 16 7 35 -2 19 0 35 4 35 8
0 23 38 21 53 -1 4 4 7 9 7 5 0 9 5 7 11 -3 17 106 137 126 138 9 1 17 6 17
11 0 6 11 15 25 20 14 5 25 14 25 20 0 5 11 10 25 10 14 0 25 4 25 9 0 5 17
15 38 21 20 6 44 14 52 17 8 4 22 7 30 7 8 1 20 5 26 9 17 10 233 7 239 -3 3
-5 18 -7 33 -6 15 2 34 0 42 -4 29 -15 75 -34 85 -36 29 -5 55 -17 55 -25 0
-5 3 -8 8 -7 13 2 82 -32 82 -42 0 -6 5 -10 11 -10 34 0 229 -195 229 -229 0
-6 6 -14 13 -18 14 -8 71 -119 72 -139 0 -6 7 -21 16 -35 9 -13 15 -34 13 -46
-2 -13 0 -23 5 -23 9 0 23 -70 22 -112 -1 -16 2 -28 7 -28 4 0 8 -61 8 -135 1
-74 -2 -135 -7 -135 -4 0 -7 -12 -7 -28 1 -15 -3 -38 -7 -52 -5 -14 -8 -35 -6
-47 1 -13 -2 -23 -7 -23 -5 0 -9 -8 -9 -17 0 -30 -15 -83 -24 -83 -5 0 -6 -7
-3 -15 4 -8 1 -15 -5 -15 -6 0 -11 -6 -11 -14 0 -8 -11 -37 -25 -64 -14 -28
-25 -55 -25 -61 0 -6 -4 -11 -8 -11 -8 0 -33 -46 -34 -60 0 -3 -11 -15 -24
-27 -13 -12 -24 -25 -24 -30 0 -8 -33 -44 -106 -116 -93 -92 -110 -107 -122
-107 -6 0 -15 -6 -19 -13 -11 -17 -86 -67 -101 -67 -7 0 -12 -5 -12 -10 0 -6
-3 -9 -7 -8 -5 1 -39 -13 -78 -32 -38 -19 -74 -35 -80 -36 -5 0 -23 -6 -38
-12 -16 -7 -34 -12 -41 -12 -7 0 -16 -3 -20 -7 -4 -5 -11 -8 -14 -9 -31 -2
-99 -18 -107 -24 -5 -4 -29 -6 -53 -5 -24 1 -45 -2 -48 -7 -7 -11 -321 -10
-328 0 -3 5 -25 8 -50 7 -26 -1 -46 1 -46 5 0 4 -19 10 -42 14 -75 12 -83 13
-88 16 -3 1 -9 3 -15 4 -5 1 -18 5 -27 9 -20 8 -51 19 -58 22 -3 1 -18 7 -33
13 -16 7 -32 12 -37 12 -12 0 -74 33 -81 44 -4 5 -11 6 -17 2 -5 -3 -15 1 -22
9 -7 8 -19 15 -26 15 -8 0 -14 4 -14 9 0 5 -14 12 -30 16 -17 4 -30 10 -30 14
0 5 -18 16 -40 26 -22 10 -40 22 -40 27 0 4 -7 8 -15 8 -7 0 -18 6 -22 14 -4
7 -13 15 -20 17 -28 10 -283 250 -283 267 0 5 -9 17 -20 27 -11 10 -20 24 -20
30 0 7 -7 15 -15 19 -8 3 -15 12 -15 21 0 8 -3 15 -8 15 -7 0 -47 67 -47 79 0
3 -10 20 -22 37 -12 17 -20 34 -16 38 3 3 1 6 -5 6 -7 0 -12 8 -12 18 0 9 -9
35 -19 57 -22 44 -34 74 -36 90 -1 6 -7 22 -13 37 -6 15 -13 38 -14 50 -2 13
-6 28 -10 33 -3 6 -9 29 -13 52 -4 26 -12 42 -23 45 -32 7 -372 2 -379 -7 -5
-4 -2 -10 5 -12 6 -3 12 -20 12 -38 0 -19 4 -36 9 -39 4 -3 6 -17 3 -31 -3
-16 0 -25 8 -25 8 0 11 -9 8 -25 -3 -14 1 -30 8 -36 7 -6 10 -17 7 -25 -3 -8
0 -14 5 -14 6 0 9 -11 6 -25 -2 -14 0 -25 6 -25 5 0 10 -9 10 -20 0 -12 7 -31
15 -44 9 -13 15 -28 14 -32 -4 -17 13 -64 23 -64 6 0 8 -7 4 -15 -3 -8 -1 -15
4 -15 6 0 10 -6 10 -14 0 -8 12 -38 27 -68 15 -29 26 -56 25 -60 -1 -5 2 -8 8
-8 5 0 10 -7 10 -15 0 -8 5 -15 12 -15 6 0 8 -3 5 -7 -4 -3 -2 -12 4 -20 6 -7
8 -13 3 -13 -5 0 -4 -4 2 -8 5 -4 19 -25 30 -47 27 -56 95 -155 105 -155 5 0
9 -6 9 -14 0 -7 7 -19 15 -26 8 -7 13 -15 12 -19 -2 -3 50 -59 115 -123 65
-64 118 -114 118 -111 0 4 46 -31 90 -71 20 -18 93 -63 103 -64 5 0 17 -10 27
-21 10 -12 24 -19 33 -16 8 4 17 -1 20 -9 4 -9 13 -16 22 -16 8 0 15 -5 15
-11 0 -6 6 -9 14 -6 8 3 16 3 18 -1 5 -11 116 -63 143 -67 6 -1 18 -5 28 -8 9
-4 25 -10 35 -14 9 -3 23 -5 30 -4 6 1 12 -2 12 -7 0 -9 66 -28 84 -23 4 1 14
-4 22 -10 8 -6 14 -8 14 -3 0 4 5 3 12 -4 7 -7 26 -12 43 -12 18 0 35 -3 39
-7 4 -5 22 -9 39 -10 44 -4 89 -10 123 -17 16 -3 51 -7 77 -8 26 -1 50 -4 52
-7 5 -8 377 -8 390 0 6 4 25 7 44 7 18 0 38 5 44 11 5 5 16 7 23 4 8 -3 20 -1
27 5 6 5 22 8 35 7 12 -1 22 2 22 7 0 4 14 8 30 8 17 0 30 4 30 9 0 6 9 8 20
6 11 -2 20 0 20 5 0 5 14 11 31 15 17 4 47 16 65 27 18 11 39 21 46 22 30 6
68 26 68 36 0 5 3 9 8 8 12 -4 72 24 72 33 0 5 6 9 14 9 7 0 19 7 26 15 7 8
16 13 20 10 5 -3 16 5 25 17 8 13 19 23 23 22 10 -2 54 27 73 48 9 10 18 15
21 13 3 -3 21 12 41 34 19 22 38 37 41 34 3 -3 8 2 12 11 3 9 10 16 15 16 11
0 56 45 69 71 6 11 15 17 21 14 5 -4 9 0 9 8 0 13 16 33 90 113 11 12 20 24
20 29 0 8 59 86 73 96 5 3 8 9 8 13 -1 3 15 41 36 84 21 42 36 80 35 85 -1 4
2 7 8 7 5 0 10 7 10 15 0 8 5 15 10 15 6 0 9 3 8 8 -4 13 26 112 34 112 4 0 6
14 4 30 -2 17 1 30 5 30 5 0 9 14 9 30 0 17 4 30 9 30 5 0 8 16 6 35 -2 19 1
35 7 35 5 0 8 17 7 38 -2 21 1 43 5 50 11 19 11 365 0 369 -6 2 -8 19 -6 38 2
19 1 43 -4 52 -4 10 -9 23 -10 28 -10 66 -18 96 -25 101 -4 2 -6 11 -2 19 3 8
1 15 -4 15 -5 0 -10 6 -11 13 -5 44 -16 77 -24 77 -5 0 -6 5 -3 10 3 6 1 10
-4 10 -6 0 -11 11 -11 24 0 13 -7 27 -16 30 -10 4 -14 14 -11 25 3 11 0 22 -7
24 -6 3 -18 17 -26 33 -22 43 -53 88 -67 97 -7 4 -13 13 -13 20 0 14 -126 147
-190 200 -25 20 -57 49 -72 63 -16 14 -28 22 -28 19 0 -4 -15 4 -32 17 -43 30
-89 57 -110 64 -10 4 -18 10 -18 15 0 5 -3 8 -7 7 -8 -1 -32 7 -73 25 -14 6
-27 11 -30 12 -3 1 -25 7 -50 15 -25 7 -49 14 -55 15 -5 1 -18 5 -28 9 -9 5
-26 6 -37 3 -10 -3 -21 0 -23 6 -2 6 -33 10 -75 9 -40 0 -72 3 -72 8 0 10 -99
10 -105 -1z"/>
<path d="M641 3783 c-20 -16 -30 -15 192 -17 160 -1 187 1 187 14 0 13 -27 15
-182 15 -127 0 -186 -4 -197 -12z"/>
<path d="M1090 3781 c0 -6 3 -12 8 -12 33 -6 382 -2 382 3 0 5 -81 8 -179 8
-99 0 -186 3 -195 6 -9 3 -16 1 -16 -5z"/>
<path d="M632 3648 c3 -23 4 -23 188 -24 102 0 190 4 197 9 6 4 9 15 6 23 -4
11 -40 14 -200 14 l-194 0 3 -22z"/>
<path d="M1090 3651 c0 -10 6 -21 13 -23 6 -2 91 -4 187 -3 169 0 175 1 178
21 3 21 -1 21 -188 23 -182 2 -190 1 -190 -18z"/>
<path d="M1674 3660 c-3 -3 -31 -5 -62 -5 -43 0 -57 -4 -57 -15 0 -12 30 -15
187 -15 189 0 210 4 173 35 -8 7 -20 8 -27 4 -17 -12 -32 -12 -39 -1 -4 6 -13
6 -20 1 -22 -13 -42 -14 -57 -2 -10 9 -16 8 -22 -1 -5 -9 -10 -10 -14 -2 -7
11 -52 12 -62 1z"/>
<path d="M653 3542 c-15 -2 -23 -10 -23 -23 0 -20 -3 -20 170 -20 235 0 229
-1 223 21 -3 11 -8 20 -12 21 -32 2 -341 3 -358 1z"/>
<path d="M1124 3540 c-17 -3 -30 -12 -32 -23 -4 -19 -11 -18 183 -18 212 0
204 -1 198 21 -3 11 -8 20 -12 21 -45 3 -315 3 -337 -1z"/>
<path d="M1559 3545 c0 0 -2 -10 -5 -22 -4 -22 0 -23 54 -24 196 -2 316 1 323
8 31 31 -38 38 -372 38z"/>
<path d="M2886 3452 c-4 -3 -19 -7 -34 -7 -15 -1 -42 -9 -59 -18 -18 -10 -36
-18 -40 -19 -58 -8 -207 -135 -233 -198 -7 -16 -16 -30 -20 -30 -8 0 -24 -57
-21 -77 1 -7 -2 -13 -7 -13 -13 0 -14 -90 -2 -105 6 -7 10 -17 9 -21 -6 -26
73 -124 99 -124 7 0 12 -3 12 -8 0 -4 27 -7 59 -6 61 0 114 23 109 47 -7 37
99 162 128 150 8 -3 14 -1 14 5 0 5 33 8 78 7 42 -1 77 -3 77 -5 0 -1 10 -4
22 -5 34 -3 131 -66 164 -105 57 -67 74 -103 86 -177 3 -18 8 -33 12 -33 13 0
3 -244 -12 -297 -8 -29 -12 -53 -9 -53 4 0 3 -4 -3 -8 -5 -4 -22 -33 -37 -64
-15 -32 -33 -58 -39 -58 -6 0 -9 -6 -6 -13 3 -7 -3 -19 -13 -25 -10 -6 -25
-24 -32 -39 -7 -15 -23 -32 -35 -38 -12 -6 -35 -24 -50 -40 -15 -15 -42 -34
-60 -41 -17 -7 -33 -17 -35 -21 -5 -12 -92 -53 -112 -53 -9 0 -16 -5 -16 -11
0 -5 -5 -7 -10 -4 -6 4 -16 2 -23 -3 -17 -13 -68 -26 -94 -23 -13 1 -23 -2
-23 -7 0 -4 -72 -8 -160 -8 -88 0 -160 3 -160 8 0 5 -13 7 -30 4 -16 -2 -32 0
-36 5 -3 5 -18 9 -35 9 -16 0 -29 4 -29 9 0 5 -11 8 -25 5 -14 -2 -25 0 -25 5
0 5 -12 12 -27 15 -73 18 -257 125 -271 159 -2 4 -9 7 -14 7 -13 0 -168 151
-168 163 0 4 -8 17 -18 28 -11 10 -25 32 -33 47 -8 15 -16 29 -19 32 -3 3 -14
22 -25 43 -11 20 -23 37 -28 37 -4 0 -7 6 -6 13 0 6 -2 22 -6 33 -7 21 -11 21
-222 20 -198 -1 -216 -2 -219 -18 -1 -10 1 -18 6 -18 4 0 11 -12 14 -27 4 -16
13 -41 21 -58 15 -33 28 -66 29 -77 1 -4 9 -16 18 -27 9 -11 13 -22 10 -26 -4
-3 -2 -9 3 -13 12 -8 39 -64 37 -74 -1 -5 2 -8 8 -8 5 0 10 -7 10 -15 0 -8 9
-23 20 -32 11 -10 20 -23 20 -30 0 -7 5 -13 11 -13 5 0 8 -4 5 -9 -4 -5 -3
-11 1 -13 5 -1 26 -25 49 -53 69 -85 231 -235 267 -248 9 -4 17 -11 17 -17 0
-6 4 -9 9 -6 5 3 15 -1 22 -10 7 -8 29 -24 48 -34 20 -10 46 -28 58 -39 13
-12 24 -21 25 -21 2 1 17 -4 33 -11 17 -7 32 -13 35 -14 3 0 23 -10 45 -22 22
-11 43 -21 47 -22 17 -3 44 -13 61 -22 10 -5 22 -7 27 -4 6 4 10 2 10 -4 0 -8
32 -18 85 -26 6 -1 12 -3 15 -4 5 -3 20 -6 95 -17 22 -4 45 -9 50 -13 12 -9
334 -7 355 2 8 3 35 8 60 11 52 7 68 10 93 21 9 4 24 5 32 1 8 -3 15 -1 15 4
0 6 9 10 19 10 11 0 23 5 26 11 4 6 13 8 21 5 8 -3 14 -1 14 4 0 6 7 10 16 10
19 0 167 71 172 83 2 4 8 5 13 1 5 -3 9 0 9 5 0 6 6 11 14 11 7 0 19 7 26 15
7 8 15 13 19 10 4 -2 15 7 25 21 11 13 23 24 29 24 15 0 197 183 197 198 0 7
7 15 15 18 8 4 15 11 15 17 0 5 12 26 27 46 16 20 28 38 29 41 0 3 9 23 19 45
10 22 20 42 20 45 1 3 8 21 16 40 7 19 12 38 11 43 -1 4 3 7 9 7 6 0 9 9 6 20
-3 10 0 21 6 23 7 2 11 16 9 30 -1 15 2 27 8 27 5 0 8 16 6 35 -1 19 2 36 7
38 5 1 9 26 9 54 -1 29 2 54 6 57 12 7 -3 185 -23 271 -3 17 -7 40 -8 53 -1
12 -5 22 -9 22 -5 0 -8 9 -8 19 0 11 -5 23 -10 26 -6 4 -8 11 -5 16 4 5 2 9
-3 9 -5 0 -12 13 -15 29 -4 16 -27 61 -52 100 -25 39 -45 74 -45 76 0 8 -134
138 -173 168 -20 15 -40 27 -45 27 -6 0 -12 5 -14 11 -2 5 -10 11 -18 13 -8 2
-33 11 -55 21 -22 10 -46 18 -52 18 -7 0 -13 4 -13 9 0 4 -13 8 -30 8 -16 0
-30 4 -30 8 0 4 -17 7 -37 6 -21 -1 -42 2 -48 6 -13 9 -171 11 -179 2z"/>
<path d="M630 3388 l0 -27 153 -3 c204 -4 234 -1 240 21 2 11 2 23 -2 28 -3 4
-93 8 -198 9 l-193 0 0 -28z"/>
<path d="M1090 3388 l0 -28 193 2 c176 3 192 4 191 21 -1 9 3 17 9 17 6 0 7 3
3 7 -4 4 -95 8 -202 8 l-194 1 0 -28z"/>
<path d="M1554 3411 c-2 -2 -4 -15 -4 -28 l0 -23 190 0 190 0 0 28 0 27 -186
0 c-102 0 -187 -1 -190 -4z"/>
<path d="M639 3296 c-5 -6 -9 -22 -9 -36 l0 -26 194 0 c194 -1 194 -1 199 22
8 46 -1 48 -193 48 -102 1 -185 -3 -191 -8z"/>
<path d="M1150 3297 c0 -4 -6 -7 -12 -6 -39 5 -49 -1 -46 -28 l3 -28 188 -1
c103 0 188 3 188 8 3 19 5 24 12 36 6 8 2 12 -12 12 -12 0 -21 3 -21 8 0 4
-67 7 -150 7 -82 0 -150 -4 -150 -8z"/>
<path d="M1600 3290 c-40 -4 -45 -8 -45 -30 l0 -25 188 -1 187 -1 0 23 c0 16
-7 25 -22 29 -33 7 -255 11 -308 5z"/>
<path d="M647 3168 c-11 -5 -17 -22 -17 -42 l0 -33 189 1 c104 1 192 4 195 7
4 4 8 22 9 40 l3 35 -181 1 c-100 0 -189 -4 -198 -9z"/>
<path d="M1099 3164 c-6 -7 -9 -25 -7 -41 l3 -28 185 0 185 0 3 29 c2 16 -2
34 -8 40 -17 17 -346 18 -361 0z"/>
<path d="M1553 3156 c-3 -4 1 -12 8 -17 7 -4 10 -11 7 -15 -4 -3 -1 -13 7 -20
15 -16 65 -15 65 1 0 6 3 6 8 -1 9 -14 241 -13 263 1 9 6 18 20 21 33 7 26 23
24 -210 26 -90 0 -166 -3 -169 -8z"/>
<path d="M1212 3052 l-123 -3 3 -41 3 -41 183 -1 c101 -1 189 2 195 6 6 3 11
23 12 42 1 33 -2 36 -30 37 -16 0 -50 1 -75 2 -25 1 -100 1 -168 -1z"/>
<path d="M1620 3052 c-43 -4 -53 -13 -55 -52 -2 -35 -18 -32 185 -32 216 0
199 -3 196 33 -1 18 -10 35 -20 41 -17 10 -233 16 -306 10z"/>
<path d="M644 3010 c0 -29 4 -40 15 -41 20 -1 352 -1 367 0 12 1 13 49 1 69
-6 9 -57 12 -196 12 l-187 0 0 -40z"/>
<path d="M2955 2980 c-39 -6 -85 -35 -109 -67 -27 -37 -28 -98 0 -124 21 -20
40 -64 35 -83 -1 -5 1 -16 5 -25 13 -30 15 -61 3 -61 -8 0 -8 -4 1 -15 9 -11
9 -15 1 -15 -7 0 -11 -8 -10 -17 4 -29 -12 -73 -24 -66 -6 4 -8 -2 -5 -14 4
-16 -8 -34 -46 -72 -29 -28 -55 -49 -59 -45 -3 4 -18 -1 -31 -10 -14 -9 -39
-16 -56 -16 -16 0 -30 -3 -30 -7 0 -10 -87 -9 -96 0 -4 4 -31 7 -60 7 -29 0
-56 5 -59 11 -4 6 -13 8 -21 5 -8 -3 -14 -2 -14 3 0 5 -15 12 -34 15 -19 4
-36 11 -38 17 -2 6 -34 13 -71 16 -37 3 -67 9 -67 14 0 4 9 6 20 4 26 -5 25 6
-2 41 -57 73 -48 71 -290 71 -120 0 -218 -2 -218 -6 1 -3 13 -28 29 -56 18
-33 34 -49 45 -47 9 2 16 -2 16 -8 0 -5 -5 -10 -10 -10 -17 0 26 -72 64 -109
20 -19 36 -41 36 -48 0 -7 11 -15 24 -19 16 -4 23 -11 19 -20 -3 -8 0 -14 7
-14 11 0 34 -16 89 -62 36 -29 115 -78 127 -78 8 0 14 -5 14 -12 0 -6 3 -8 7
-5 3 4 12 2 20 -4 7 -6 13 -8 13 -5 0 4 13 -2 29 -13 15 -11 38 -19 50 -16 11
2 21 0 21 -5 0 -4 19 -11 43 -15 23 -4 47 -11 52 -15 21 -16 339 -13 376 4 9
4 20 6 25 5 5 -1 17 1 27 4 9 4 25 10 35 14 9 3 19 7 22 8 67 18 140 55 173
88 15 15 31 27 36 27 5 0 27 21 50 48 56 62 63 72 55 72 -3 0 4 15 17 33 42
56 83 157 84 204 0 12 3 25 8 29 11 11 9 142 -3 149 -5 3 -8 16 -6 28 2 12 -1
28 -6 34 -6 7 -8 20 -4 28 3 8 1 15 -4 15 -6 0 -10 7 -10 15 0 8 -4 15 -10 15
-5 0 -10 7 -10 15 0 8 -20 37 -45 65 -25 28 -45 47 -45 44 0 -4 -10 2 -23 14
-13 12 -27 19 -30 15 -4 -3 -7 -1 -7 6 0 8 -8 11 -20 8 -11 -3 -20 -2 -20 3 0
11 -48 16 -85 10z"/>
<path d="M645 2922 c-2 -2 1 -16 6 -30 5 -14 8 -31 5 -38 -3 -7 1 -16 7 -21 9
-6 333 -10 380 -4 9 1 9 45 0 55 -4 4 -8 15 -8 24 0 15 -20 17 -193 17 -106 1
-195 -1 -197 -3z"/>
<path d="M1094 2918 c-3 -4 -1 -8 5 -8 5 0 9 -18 7 -40 -2 -24 1 -40 8 -41 6
0 96 -1 200 -2 197 -2 208 0 191 41 -4 9 -8 26 -9 37 -1 19 -9 20 -199 20
-109 1 -201 -3 -203 -7z"/>
<path d="M1582 2883 c0 -33 5 -43 22 -48 17 -5 236 -9 323 -6 28 1 57 29 44
45 -5 6 -11 20 -13 31 -3 19 -11 20 -190 20 l-187 0 1 -42z"/>
<path d="M666 2788 c4 -6 6 -28 6 -48 l-2 -38 195 0 c112 0 195 3 196 9 3 22
1 46 -6 66 -7 22 -9 23 -202 23 -142 -1 -192 -4 -187 -12z"/>
<path d="M1118 2795 c-8 -8 3 -65 13 -65 5 0 6 -6 3 -14 -4 -12 29 -14 201
-14 l207 0 -7 26 c-3 15 -7 37 -8 50 l-1 22 -201 0 c-111 0 -204 -2 -207 -5z"/>
<path d="M1595 2791 c-3 -5 -1 -12 5 -16 5 -3 10 -21 10 -40 l0 -33 203 2
c222 1 213 -2 188 64 l-13 32 -193 0 c-109 0 -196 -4 -200 -9z"/>
<path d="M1155 2667 c-10 -5 -11 -15 -3 -45 6 -20 14 -39 18 -42 5 -3 98 -5
207 -5 l198 0 -3 39 c-2 22 -9 44 -15 50 -14 13 -380 16 -402 3z"/>
<path d="M1637 2659 c-2 -8 3 -31 12 -50 l16 -34 210 -1 c116 0 213 1 218 4 4
2 -6 21 -23 42 -16 21 -30 42 -30 46 0 5 -90 9 -199 9 -173 0 -201 -2 -204
-16z"/>
</g>
</svg>
